{"title":"The Quiet Man [NTSC,1080p,MKV]","uid":9602237,"size":12966779955,"categoryP":"video","categoryS":"hd___movies","magnet":"?xt=urn:btih:8dcd8aadff106ae39b6ff62b83e69fc5a9f94f4a&amp;dn=The+Quiet+Man+%5BNTSC%2C1080p%2CMKV%5D&amp;tr=udp%3A%2F%2Ftracker.openbittorrent.com%3A80&amp;tr=udp%3A%2F%2Fopen.demonii.com%3A1337&amp;tr=udp%3A%2F%2Ftracker.coppersurfer.tk%3A6969&amp;tr=udp%3A%2F%2Fexodus.desync.com%3A6969","seeders":1,"leechers":0,"uploader":"Celtoid","files":-1,"time":1392140381,"description":"The Quiet Man\n\nComplete name                            : The Quiet Man.mkv\nFormat                                   : Matroska\nFormat version                           : Version 2\nFile size                                : 12.1 GiB\nDuration                                 : 2h 9mn\nOverall bit rate                         : 13.3 Mbps\nWriting application                      : HandBrake 0.9.9\nWriting library                          : libmkv 0.6.5\n\nVideo\nID                                       : 1\nFormat                                   : AVC\nFormat/Info                              : Advanced Video Codec\nFormat profile                           : &lt;a class=&quot;__cf_email__&quot; href=&quot;/cdn-cgi/l/email-protection&quot; data-cfemail=&quot;5810313f3018146c7669&quot;&gt;[email&amp;#160;protected]&lt;/a&gt;&lt;script cf-hash='f9e31' type=&quot;text/javascript&quot;&gt;\n/* &lt;![CDATA[ */!function(){try{var t=&quot;currentScript&quot;in document?document.currentScript:function(){for(var t=document.getElementsByTagName(&quot;script&quot;),e=t.length;e--;)if(t[e].getAttribute(&quot;cf-hash&quot;))return t[e]}();if(t&amp;&amp;t.previousSibling){var e,r,n,i,c=t.previousSibling,a=c.getAttribute(&quot;data-cfemail&quot;);if(a){for(e=&quot;&quot;,r=parseInt(a.substr(0,2),16),n=2;a.length-n;n+=2)i=parseInt(a.substr(n,2),16)^r,e+=String.fromCharCode(i);e=document.createTextNode(e),c.parentNode.replaceChild(e,c)}}}catch(u){}}();/* ]]&gt; */&lt;/script&gt;\nFormat settings, CABAC                   : Yes\nFormat settings, ReFrames                : 3 frames\nCodec ID                                 : V_MPEG4/ISO/AVC\nDuration                                 : 2h 9mn\nBit rate                                 : 13.0 Mbps\nWidth                                    : 1 920 pixels\nHeight                                   : 1 402 pixels\nDisplay aspect ratio                     : 4:3\nOriginal display aspect ratio            : 4:3\nFrame rate mode                          : Constant\nFrame rate                               : 23.976 fps\nColor space                              : YUV\nChroma subsampling                       : 4:2:0\nBit depth                                : 8 bits\nScan type                                : Progressive\nBits/(Pixel*Frame)                       : 0.201\nStream size                              : 11.5 GiB (96%)\nWriting library                          : x264 core 130 r2273 b3065e6\nLanguage                                 : English\nDefault                                  : Yes\nForced                                   : No\nColor primaries                          : BT.709\nTransfer characteristics                 : BT.709\nMatrix coefficients                      : BT.709\n\nAudio\nID                                       : 2\nFormat                                   : AC-3\nFormat/Info                              : Audio Coding 3\nMode extension                           : CM (complete main)\nFormat settings, Endianness              : Big\nCodec ID                                 : A_AC3\nDuration                                 : 2h 9mn\nBit rate mode                            : Constant\nBit rate                                 : 320 Kbps\nChannel(s)                               : 1 channel\nChannel positions                        : Front: C\nSampling rate                            : 48.0 KHz\nBit depth                                : 16 bits\nCompression mode                         : Lossy\nStream size                              : 297 MiB (2%)\nLanguage                                 : English\nDefault                                  : Yes\nForced                                   : No","torrent":{"xt":"urn:btih:8dcd8aadff106ae39b6ff62b83e69fc5a9f94f4a","amp;dn":"The+Quiet+Man+%5BNTSC%2C1080p%2CMKV%5D","amp;tr":["udp%3A%2F%2Ftracker.openbittorrent.com%3A80","udp%3A%2F%2Fopen.demonii.com%3A1337","udp%3A%2F%2Ftracker.coppersurfer.tk%3A6969","udp%3A%2F%2Fexodus.desync.com%3A6969"],"infoHash":"8dcd8aadff106ae39b6ff62b83e69fc5a9f94f4a","infoHashBuffer":{"type":"Buffer","data":[141,205,138,173,255,16,106,227,155,111,246,43,131,230,159,197,169,249,79,74]},"announce":[],"urlList":[]}}